<mxfile host="app.diagrams.net" modified="2021-09-25T02:45:26.354Z" agent="5.0 (Windows NT 10.0; Win64; x64) AppleWebKit/537.36 (KHTML, like Gecko) Chrome/93.0.4577.82 Safari/537.36" etag="YTsZYOquKGK6kOy24P1J" version="15.3.2" type="github">
  <diagram id="R2lEEEUBdFMjLlhIrx00" name="Page-1">
    <mxGraphModel dx="868" dy="1582" grid="1" gridSize="10" guides="1" tooltips="1" connect="1" arrows="1" fold="1" page="1" pageScale="1" pageWidth="850" pageHeight="1100" math="0" shadow="0" extFonts="Permanent Marker^https://fonts.googleapis.com/css?family=Permanent+Marker">
      <root>
        <mxCell id="0" />
        <mxCell id="1" parent="0" />
        <mxCell id="SL9Pmq_FGMzBkLCpXPil-29" style="edgeStyle=none;rounded=0;orthogonalLoop=1;jettySize=auto;html=1;exitX=1;exitY=0.5;exitDx=0;exitDy=0;entryX=0;entryY=0.5;entryDx=0;entryDy=0;endArrow=none;endFill=0;" edge="1" parent="1" source="SL9Pmq_FGMzBkLCpXPil-5" target="SL9Pmq_FGMzBkLCpXPil-28">
          <mxGeometry relative="1" as="geometry" />
        </mxCell>
        <mxCell id="SL9Pmq_FGMzBkLCpXPil-5" value="Farmacêuticos" style="whiteSpace=wrap;html=1;align=center;" vertex="1" parent="1">
          <mxGeometry x="140" y="-140" width="100" height="40" as="geometry" />
        </mxCell>
        <mxCell id="SL9Pmq_FGMzBkLCpXPil-11" style="edgeStyle=orthogonalEdgeStyle;rounded=0;orthogonalLoop=1;jettySize=auto;html=1;exitX=1;exitY=0.5;exitDx=0;exitDy=0;entryX=1;entryY=0.5;entryDx=0;entryDy=0;endArrow=none;endFill=0;" edge="1" parent="1" source="SL9Pmq_FGMzBkLCpXPil-6" target="SL9Pmq_FGMzBkLCpXPil-10">
          <mxGeometry relative="1" as="geometry" />
        </mxCell>
        <mxCell id="SL9Pmq_FGMzBkLCpXPil-22" style="edgeStyle=none;rounded=0;orthogonalLoop=1;jettySize=auto;html=1;exitX=0.5;exitY=1;exitDx=0;exitDy=0;entryX=0.5;entryY=0;entryDx=0;entryDy=0;endArrow=none;endFill=0;" edge="1" parent="1" source="SL9Pmq_FGMzBkLCpXPil-6" target="SL9Pmq_FGMzBkLCpXPil-20">
          <mxGeometry relative="1" as="geometry" />
        </mxCell>
        <mxCell id="SL9Pmq_FGMzBkLCpXPil-6" value="Clientes" style="whiteSpace=wrap;html=1;align=center;" vertex="1" parent="1">
          <mxGeometry x="490" y="40" width="100" height="40" as="geometry" />
        </mxCell>
        <mxCell id="SL9Pmq_FGMzBkLCpXPil-15" style="rounded=0;orthogonalLoop=1;jettySize=auto;html=1;exitX=0;exitY=0.75;exitDx=0;exitDy=0;entryX=0;entryY=0.75;entryDx=0;entryDy=0;endArrow=none;endFill=0;" edge="1" parent="1" source="SL9Pmq_FGMzBkLCpXPil-10" target="SL9Pmq_FGMzBkLCpXPil-12">
          <mxGeometry relative="1" as="geometry" />
        </mxCell>
        <mxCell id="SL9Pmq_FGMzBkLCpXPil-17" style="edgeStyle=none;rounded=0;orthogonalLoop=1;jettySize=auto;html=1;exitX=0;exitY=0.25;exitDx=0;exitDy=0;entryX=0;entryY=0.25;entryDx=0;entryDy=0;endArrow=none;endFill=0;" edge="1" parent="1" source="SL9Pmq_FGMzBkLCpXPil-10" target="SL9Pmq_FGMzBkLCpXPil-13">
          <mxGeometry relative="1" as="geometry" />
        </mxCell>
        <mxCell id="SL9Pmq_FGMzBkLCpXPil-10" value="" style="triangle;whiteSpace=wrap;html=1;direction=west;" vertex="1" parent="1">
          <mxGeometry x="660" y="40" width="30" height="40" as="geometry" />
        </mxCell>
        <mxCell id="SL9Pmq_FGMzBkLCpXPil-12" value="Farmácias" style="whiteSpace=wrap;html=1;align=center;" vertex="1" parent="1">
          <mxGeometry x="730" y="10" width="100" height="40" as="geometry" />
        </mxCell>
        <mxCell id="SL9Pmq_FGMzBkLCpXPil-13" value="Drogarias" style="whiteSpace=wrap;html=1;align=center;" vertex="1" parent="1">
          <mxGeometry x="730" y="70" width="100" height="40" as="geometry" />
        </mxCell>
        <mxCell id="SL9Pmq_FGMzBkLCpXPil-23" style="edgeStyle=none;rounded=0;orthogonalLoop=1;jettySize=auto;html=1;exitX=0.5;exitY=1;exitDx=0;exitDy=0;entryX=0.5;entryY=0;entryDx=0;entryDy=0;endArrow=none;endFill=0;" edge="1" parent="1" source="SL9Pmq_FGMzBkLCpXPil-20" target="SL9Pmq_FGMzBkLCpXPil-21">
          <mxGeometry relative="1" as="geometry" />
        </mxCell>
        <mxCell id="SL9Pmq_FGMzBkLCpXPil-20" value="possui" style="shape=rhombus;perimeter=rhombusPerimeter;whiteSpace=wrap;html=1;align=center;" vertex="1" parent="1">
          <mxGeometry x="480" y="150" width="120" height="60" as="geometry" />
        </mxCell>
        <mxCell id="SL9Pmq_FGMzBkLCpXPil-44" style="edgeStyle=none;rounded=0;orthogonalLoop=1;jettySize=auto;html=1;exitX=0.25;exitY=1;exitDx=0;exitDy=0;endArrow=none;endFill=0;" edge="1" parent="1" source="SL9Pmq_FGMzBkLCpXPil-21">
          <mxGeometry relative="1" as="geometry">
            <mxPoint x="514.8823529411766" y="430" as="targetPoint" />
          </mxGeometry>
        </mxCell>
        <mxCell id="SL9Pmq_FGMzBkLCpXPil-45" style="edgeStyle=none;rounded=0;orthogonalLoop=1;jettySize=auto;html=1;exitX=0.5;exitY=1;exitDx=0;exitDy=0;endArrow=none;endFill=0;" edge="1" parent="1" source="SL9Pmq_FGMzBkLCpXPil-21">
          <mxGeometry relative="1" as="geometry">
            <mxPoint x="539.5882352941176" y="390" as="targetPoint" />
          </mxGeometry>
        </mxCell>
        <mxCell id="SL9Pmq_FGMzBkLCpXPil-46" style="edgeStyle=none;rounded=0;orthogonalLoop=1;jettySize=auto;html=1;exitX=0.75;exitY=1;exitDx=0;exitDy=0;endArrow=none;endFill=0;" edge="1" parent="1" source="SL9Pmq_FGMzBkLCpXPil-21">
          <mxGeometry relative="1" as="geometry">
            <mxPoint x="565.4705882352941" y="350" as="targetPoint" />
          </mxGeometry>
        </mxCell>
        <mxCell id="SL9Pmq_FGMzBkLCpXPil-47" style="edgeStyle=none;rounded=0;orthogonalLoop=1;jettySize=auto;html=1;exitX=0;exitY=1;exitDx=0;exitDy=0;endArrow=none;endFill=0;" edge="1" parent="1" source="SL9Pmq_FGMzBkLCpXPil-21">
          <mxGeometry relative="1" as="geometry">
            <mxPoint x="490.17647058823513" y="490" as="targetPoint" />
          </mxGeometry>
        </mxCell>
        <mxCell id="SL9Pmq_FGMzBkLCpXPil-48" style="edgeStyle=none;rounded=0;orthogonalLoop=1;jettySize=auto;html=1;exitX=1;exitY=0;exitDx=0;exitDy=0;endArrow=none;endFill=0;" edge="1" parent="1" source="SL9Pmq_FGMzBkLCpXPil-21">
          <mxGeometry relative="1" as="geometry">
            <mxPoint x="710" y="289.47058823529414" as="targetPoint" />
          </mxGeometry>
        </mxCell>
        <mxCell id="SL9Pmq_FGMzBkLCpXPil-49" style="edgeStyle=none;rounded=0;orthogonalLoop=1;jettySize=auto;html=1;exitX=1;exitY=0.5;exitDx=0;exitDy=0;endArrow=none;endFill=0;" edge="1" parent="1" source="SL9Pmq_FGMzBkLCpXPil-21">
          <mxGeometry relative="1" as="geometry">
            <mxPoint x="660" y="309.47058823529414" as="targetPoint" />
          </mxGeometry>
        </mxCell>
        <mxCell id="SL9Pmq_FGMzBkLCpXPil-50" style="edgeStyle=none;rounded=0;orthogonalLoop=1;jettySize=auto;html=1;exitX=0;exitY=0;exitDx=0;exitDy=0;endArrow=none;endFill=0;" edge="1" parent="1" source="SL9Pmq_FGMzBkLCpXPil-21">
          <mxGeometry relative="1" as="geometry">
            <mxPoint x="370" y="289.47058823529414" as="targetPoint" />
          </mxGeometry>
        </mxCell>
        <mxCell id="SL9Pmq_FGMzBkLCpXPil-51" style="edgeStyle=none;rounded=0;orthogonalLoop=1;jettySize=auto;html=1;exitX=0;exitY=0.5;exitDx=0;exitDy=0;endArrow=none;endFill=0;" edge="1" parent="1" source="SL9Pmq_FGMzBkLCpXPil-21">
          <mxGeometry relative="1" as="geometry">
            <mxPoint x="410" y="309.47058823529414" as="targetPoint" />
          </mxGeometry>
        </mxCell>
        <mxCell id="SL9Pmq_FGMzBkLCpXPil-21" value="Ficha Cadastral" style="whiteSpace=wrap;html=1;align=center;" vertex="1" parent="1">
          <mxGeometry x="490" y="290" width="100" height="40" as="geometry" />
        </mxCell>
        <mxCell id="SL9Pmq_FGMzBkLCpXPil-24" value="1" style="text;html=1;align=center;verticalAlign=middle;resizable=0;points=[];autosize=1;strokeColor=none;fillColor=none;" vertex="1" parent="1">
          <mxGeometry x="540" y="80" width="20" height="20" as="geometry" />
        </mxCell>
        <mxCell id="SL9Pmq_FGMzBkLCpXPil-25" value="1" style="text;html=1;align=center;verticalAlign=middle;resizable=0;points=[];autosize=1;strokeColor=none;fillColor=none;" vertex="1" parent="1">
          <mxGeometry x="540" y="270" width="20" height="20" as="geometry" />
        </mxCell>
        <mxCell id="SL9Pmq_FGMzBkLCpXPil-72" style="edgeStyle=none;rounded=0;orthogonalLoop=1;jettySize=auto;html=1;exitX=1;exitY=0;exitDx=0;exitDy=0;endArrow=none;endFill=0;" edge="1" parent="1" source="SL9Pmq_FGMzBkLCpXPil-26">
          <mxGeometry relative="1" as="geometry">
            <mxPoint x="630" y="-139.9411764705883" as="targetPoint" />
          </mxGeometry>
        </mxCell>
        <mxCell id="SL9Pmq_FGMzBkLCpXPil-73" style="edgeStyle=none;rounded=0;orthogonalLoop=1;jettySize=auto;html=1;exitX=1;exitY=0.5;exitDx=0;exitDy=0;endArrow=none;endFill=0;" edge="1" parent="1" source="SL9Pmq_FGMzBkLCpXPil-26">
          <mxGeometry relative="1" as="geometry">
            <mxPoint x="680" y="-119.94117647058829" as="targetPoint" />
          </mxGeometry>
        </mxCell>
        <mxCell id="SL9Pmq_FGMzBkLCpXPil-74" style="edgeStyle=none;rounded=0;orthogonalLoop=1;jettySize=auto;html=1;exitX=1;exitY=1;exitDx=0;exitDy=0;endArrow=none;endFill=0;" edge="1" parent="1" source="SL9Pmq_FGMzBkLCpXPil-26">
          <mxGeometry relative="1" as="geometry">
            <mxPoint x="720" y="-99.94117647058829" as="targetPoint" />
          </mxGeometry>
        </mxCell>
        <mxCell id="SL9Pmq_FGMzBkLCpXPil-75" style="edgeStyle=none;rounded=0;orthogonalLoop=1;jettySize=auto;html=1;exitX=1;exitY=0;exitDx=0;exitDy=0;endArrow=none;endFill=0;" edge="1" parent="1" source="SL9Pmq_FGMzBkLCpXPil-26">
          <mxGeometry relative="1" as="geometry">
            <mxPoint x="630" y="-180" as="targetPoint" />
          </mxGeometry>
        </mxCell>
        <mxCell id="SL9Pmq_FGMzBkLCpXPil-76" style="edgeStyle=none;rounded=0;orthogonalLoop=1;jettySize=auto;html=1;exitX=1;exitY=1;exitDx=0;exitDy=0;endArrow=none;endFill=0;" edge="1" parent="1" source="SL9Pmq_FGMzBkLCpXPil-26">
          <mxGeometry relative="1" as="geometry">
            <mxPoint x="630" y="-60" as="targetPoint" />
          </mxGeometry>
        </mxCell>
        <mxCell id="SL9Pmq_FGMzBkLCpXPil-26" value="Pedido" style="whiteSpace=wrap;html=1;align=center;" vertex="1" parent="1">
          <mxGeometry x="490" y="-140" width="100" height="40" as="geometry" />
        </mxCell>
        <mxCell id="SL9Pmq_FGMzBkLCpXPil-33" style="edgeStyle=none;rounded=0;orthogonalLoop=1;jettySize=auto;html=1;exitX=0.5;exitY=0;exitDx=0;exitDy=0;entryX=0.5;entryY=1;entryDx=0;entryDy=0;endArrow=none;endFill=0;" edge="1" parent="1" source="SL9Pmq_FGMzBkLCpXPil-27" target="SL9Pmq_FGMzBkLCpXPil-26">
          <mxGeometry relative="1" as="geometry" />
        </mxCell>
        <mxCell id="SL9Pmq_FGMzBkLCpXPil-34" style="edgeStyle=none;rounded=0;orthogonalLoop=1;jettySize=auto;html=1;exitX=0.5;exitY=1;exitDx=0;exitDy=0;entryX=0.5;entryY=0;entryDx=0;entryDy=0;endArrow=none;endFill=0;" edge="1" parent="1" source="SL9Pmq_FGMzBkLCpXPil-27" target="SL9Pmq_FGMzBkLCpXPil-6">
          <mxGeometry relative="1" as="geometry" />
        </mxCell>
        <mxCell id="SL9Pmq_FGMzBkLCpXPil-27" value="faz solicitação" style="shape=rhombus;perimeter=rhombusPerimeter;whiteSpace=wrap;html=1;align=center;" vertex="1" parent="1">
          <mxGeometry x="480" y="-60" width="120" height="60" as="geometry" />
        </mxCell>
        <mxCell id="SL9Pmq_FGMzBkLCpXPil-30" style="edgeStyle=none;rounded=0;orthogonalLoop=1;jettySize=auto;html=1;exitX=1;exitY=0.5;exitDx=0;exitDy=0;entryX=0;entryY=0.5;entryDx=0;entryDy=0;endArrow=none;endFill=0;" edge="1" parent="1" source="SL9Pmq_FGMzBkLCpXPil-28" target="SL9Pmq_FGMzBkLCpXPil-26">
          <mxGeometry relative="1" as="geometry" />
        </mxCell>
        <mxCell id="SL9Pmq_FGMzBkLCpXPil-28" value="capta" style="shape=rhombus;perimeter=rhombusPerimeter;whiteSpace=wrap;html=1;align=center;" vertex="1" parent="1">
          <mxGeometry x="310" y="-150" width="120" height="60" as="geometry" />
        </mxCell>
        <mxCell id="SL9Pmq_FGMzBkLCpXPil-31" value="1" style="text;html=1;align=center;verticalAlign=middle;resizable=0;points=[];autosize=1;strokeColor=none;fillColor=none;" vertex="1" parent="1">
          <mxGeometry x="240" y="-140" width="20" height="20" as="geometry" />
        </mxCell>
        <mxCell id="SL9Pmq_FGMzBkLCpXPil-32" value="N" style="text;html=1;align=center;verticalAlign=middle;resizable=0;points=[];autosize=1;strokeColor=none;fillColor=none;" vertex="1" parent="1">
          <mxGeometry x="470" y="-140" width="20" height="20" as="geometry" />
        </mxCell>
        <mxCell id="SL9Pmq_FGMzBkLCpXPil-35" value="1" style="text;html=1;align=center;verticalAlign=middle;resizable=0;points=[];autosize=1;strokeColor=none;fillColor=none;" vertex="1" parent="1">
          <mxGeometry x="550" y="20" width="20" height="20" as="geometry" />
        </mxCell>
        <mxCell id="SL9Pmq_FGMzBkLCpXPil-36" value="N" style="text;html=1;align=center;verticalAlign=middle;resizable=0;points=[];autosize=1;strokeColor=none;fillColor=none;" vertex="1" parent="1">
          <mxGeometry x="550" y="-100" width="20" height="20" as="geometry" />
        </mxCell>
        <mxCell id="SL9Pmq_FGMzBkLCpXPil-40" style="edgeStyle=none;rounded=0;orthogonalLoop=1;jettySize=auto;html=1;exitX=0.5;exitY=1;exitDx=0;exitDy=0;entryX=0.5;entryY=0;entryDx=0;entryDy=0;endArrow=none;endFill=0;" edge="1" parent="1" source="SL9Pmq_FGMzBkLCpXPil-37" target="SL9Pmq_FGMzBkLCpXPil-26">
          <mxGeometry relative="1" as="geometry" />
        </mxCell>
        <mxCell id="SL9Pmq_FGMzBkLCpXPil-37" value="contém" style="shape=rhombus;perimeter=rhombusPerimeter;whiteSpace=wrap;html=1;align=center;" vertex="1" parent="1">
          <mxGeometry x="480" y="-290" width="120" height="60" as="geometry" />
        </mxCell>
        <mxCell id="SL9Pmq_FGMzBkLCpXPil-41" style="edgeStyle=none;rounded=0;orthogonalLoop=1;jettySize=auto;html=1;exitX=0.5;exitY=1;exitDx=0;exitDy=0;entryX=0.5;entryY=0;entryDx=0;entryDy=0;endArrow=none;endFill=0;" edge="1" parent="1" source="SL9Pmq_FGMzBkLCpXPil-38" target="SL9Pmq_FGMzBkLCpXPil-37">
          <mxGeometry relative="1" as="geometry" />
        </mxCell>
        <mxCell id="SL9Pmq_FGMzBkLCpXPil-38" value="Medicamentos" style="whiteSpace=wrap;html=1;align=center;" vertex="1" parent="1">
          <mxGeometry x="490" y="-440" width="100" height="40" as="geometry" />
        </mxCell>
        <mxCell id="SL9Pmq_FGMzBkLCpXPil-39" style="edgeStyle=none;rounded=0;orthogonalLoop=1;jettySize=auto;html=1;exitX=0.5;exitY=0;exitDx=0;exitDy=0;endArrow=none;endFill=0;" edge="1" parent="1" source="SL9Pmq_FGMzBkLCpXPil-38" target="SL9Pmq_FGMzBkLCpXPil-38">
          <mxGeometry relative="1" as="geometry" />
        </mxCell>
        <mxCell id="SL9Pmq_FGMzBkLCpXPil-42" value="N" style="text;html=1;align=center;verticalAlign=middle;resizable=0;points=[];autosize=1;strokeColor=none;fillColor=none;" vertex="1" parent="1">
          <mxGeometry x="550" y="-160" width="20" height="20" as="geometry" />
        </mxCell>
        <mxCell id="SL9Pmq_FGMzBkLCpXPil-43" value="N" style="text;html=1;align=center;verticalAlign=middle;resizable=0;points=[];autosize=1;strokeColor=none;fillColor=none;" vertex="1" parent="1">
          <mxGeometry x="540" y="-390" width="20" height="20" as="geometry" />
        </mxCell>
        <mxCell id="SL9Pmq_FGMzBkLCpXPil-52" value="" style="ellipse;whiteSpace=wrap;html=1;align=center;" vertex="1" parent="1">
          <mxGeometry x="300" y="-620" width="40" height="20" as="geometry" />
        </mxCell>
        <mxCell id="SL9Pmq_FGMzBkLCpXPil-53" value="" style="ellipse;whiteSpace=wrap;html=1;align=center;" vertex="1" parent="1">
          <mxGeometry x="550" y="350" width="40" height="20" as="geometry" />
        </mxCell>
        <mxCell id="SL9Pmq_FGMzBkLCpXPil-54" value="" style="ellipse;whiteSpace=wrap;html=1;align=center;" vertex="1" parent="1">
          <mxGeometry x="520" y="390" width="40" height="20" as="geometry" />
        </mxCell>
        <mxCell id="SL9Pmq_FGMzBkLCpXPil-55" value="" style="ellipse;whiteSpace=wrap;html=1;align=center;" vertex="1" parent="1">
          <mxGeometry x="500" y="430" width="40" height="20" as="geometry" />
        </mxCell>
        <mxCell id="SL9Pmq_FGMzBkLCpXPil-56" value="" style="ellipse;whiteSpace=wrap;html=1;align=center;" vertex="1" parent="1">
          <mxGeometry x="470" y="490" width="40" height="20" as="geometry" />
        </mxCell>
        <mxCell id="SL9Pmq_FGMzBkLCpXPil-57" value="" style="ellipse;whiteSpace=wrap;html=1;align=center;" vertex="1" parent="1">
          <mxGeometry x="370" y="300" width="40" height="20" as="geometry" />
        </mxCell>
        <mxCell id="SL9Pmq_FGMzBkLCpXPil-58" value="" style="ellipse;whiteSpace=wrap;html=1;align=center;" vertex="1" parent="1">
          <mxGeometry x="710" y="280" width="40" height="20" as="geometry" />
        </mxCell>
        <mxCell id="SL9Pmq_FGMzBkLCpXPil-59" value="" style="ellipse;whiteSpace=wrap;html=1;align=center;" vertex="1" parent="1">
          <mxGeometry x="660" y="300" width="40" height="20" as="geometry" />
        </mxCell>
        <mxCell id="SL9Pmq_FGMzBkLCpXPil-60" value="" style="ellipse;whiteSpace=wrap;html=1;align=center;" vertex="1" parent="1">
          <mxGeometry x="720" y="-110" width="40" height="20" as="geometry" />
        </mxCell>
        <mxCell id="SL9Pmq_FGMzBkLCpXPil-61" value="" style="ellipse;whiteSpace=wrap;html=1;align=center;" vertex="1" parent="1">
          <mxGeometry x="630" y="-190" width="40" height="20" as="geometry" />
        </mxCell>
        <mxCell id="SL9Pmq_FGMzBkLCpXPil-62" value="" style="ellipse;whiteSpace=wrap;html=1;align=center;" vertex="1" parent="1">
          <mxGeometry x="330" y="280" width="40" height="20" as="geometry" />
        </mxCell>
        <mxCell id="SL9Pmq_FGMzBkLCpXPil-64" value="nome" style="text;html=1;align=center;verticalAlign=middle;resizable=0;points=[];autosize=1;strokeColor=none;fillColor=none;" vertex="1" parent="1">
          <mxGeometry x="750" y="280" width="50" height="20" as="geometry" />
        </mxCell>
        <mxCell id="SL9Pmq_FGMzBkLCpXPil-65" value="cnpj" style="text;html=1;align=center;verticalAlign=middle;resizable=0;points=[];autosize=1;strokeColor=none;fillColor=none;" vertex="1" parent="1">
          <mxGeometry x="700" y="310" width="40" height="20" as="geometry" />
        </mxCell>
        <mxCell id="SL9Pmq_FGMzBkLCpXPil-66" value="endereço" style="text;html=1;align=center;verticalAlign=middle;resizable=0;points=[];autosize=1;strokeColor=none;fillColor=none;" vertex="1" parent="1">
          <mxGeometry x="590" y="350" width="70" height="20" as="geometry" />
        </mxCell>
        <mxCell id="SL9Pmq_FGMzBkLCpXPil-67" value="cidade" style="text;html=1;align=center;verticalAlign=middle;resizable=0;points=[];autosize=1;strokeColor=none;fillColor=none;" vertex="1" parent="1">
          <mxGeometry x="555" y="390" width="50" height="20" as="geometry" />
        </mxCell>
        <mxCell id="SL9Pmq_FGMzBkLCpXPil-68" value="estado" style="text;html=1;align=center;verticalAlign=middle;resizable=0;points=[];autosize=1;strokeColor=none;fillColor=none;" vertex="1" parent="1">
          <mxGeometry x="540" y="430" width="50" height="20" as="geometry" />
        </mxCell>
        <mxCell id="SL9Pmq_FGMzBkLCpXPil-69" value="cep" style="text;html=1;align=center;verticalAlign=middle;resizable=0;points=[];autosize=1;strokeColor=none;fillColor=none;" vertex="1" parent="1">
          <mxGeometry x="510" y="490" width="30" height="20" as="geometry" />
        </mxCell>
        <mxCell id="SL9Pmq_FGMzBkLCpXPil-70" value="telefone" style="text;html=1;align=center;verticalAlign=middle;resizable=0;points=[];autosize=1;strokeColor=none;fillColor=none;" vertex="1" parent="1">
          <mxGeometry x="270" y="280" width="60" height="20" as="geometry" />
        </mxCell>
        <mxCell id="SL9Pmq_FGMzBkLCpXPil-71" value="pessoa contato" style="text;html=1;align=center;verticalAlign=middle;resizable=0;points=[];autosize=1;strokeColor=none;fillColor=none;" vertex="1" parent="1">
          <mxGeometry x="270" y="300" width="100" height="20" as="geometry" />
        </mxCell>
        <mxCell id="SL9Pmq_FGMzBkLCpXPil-77" value="" style="ellipse;whiteSpace=wrap;html=1;align=center;" vertex="1" parent="1">
          <mxGeometry x="630" y="-70" width="40" height="20" as="geometry" />
        </mxCell>
        <mxCell id="SL9Pmq_FGMzBkLCpXPil-78" value="" style="ellipse;whiteSpace=wrap;html=1;align=center;" vertex="1" parent="1">
          <mxGeometry x="680" y="-130" width="40" height="20" as="geometry" />
        </mxCell>
        <mxCell id="SL9Pmq_FGMzBkLCpXPil-79" value="" style="ellipse;whiteSpace=wrap;html=1;align=center;" vertex="1" parent="1">
          <mxGeometry x="630" y="-150" width="40" height="20" as="geometry" />
        </mxCell>
        <mxCell id="SL9Pmq_FGMzBkLCpXPil-80" value="preço" style="text;html=1;align=center;verticalAlign=middle;resizable=0;points=[];autosize=1;strokeColor=none;fillColor=none;" vertex="1" parent="1">
          <mxGeometry x="760" y="-110" width="50" height="20" as="geometry" />
        </mxCell>
        <mxCell id="SL9Pmq_FGMzBkLCpXPil-81" value="quantidade" style="text;html=1;align=center;verticalAlign=middle;resizable=0;points=[];autosize=1;strokeColor=none;fillColor=none;" vertex="1" parent="1">
          <mxGeometry x="720" y="-130" width="70" height="20" as="geometry" />
        </mxCell>
        <mxCell id="SL9Pmq_FGMzBkLCpXPil-82" value="nome do medicamento" style="text;html=1;align=center;verticalAlign=middle;resizable=0;points=[];autosize=1;strokeColor=none;fillColor=none;" vertex="1" parent="1">
          <mxGeometry x="670" y="-70" width="140" height="20" as="geometry" />
        </mxCell>
        <mxCell id="SL9Pmq_FGMzBkLCpXPil-83" value="nome do cliente" style="text;html=1;align=center;verticalAlign=middle;resizable=0;points=[];autosize=1;strokeColor=none;fillColor=none;" vertex="1" parent="1">
          <mxGeometry x="670" y="-190" width="100" height="20" as="geometry" />
        </mxCell>
        <mxCell id="SL9Pmq_FGMzBkLCpXPil-84" value="data do pedido" style="text;html=1;align=center;verticalAlign=middle;resizable=0;points=[];autosize=1;strokeColor=none;fillColor=none;" vertex="1" parent="1">
          <mxGeometry x="670" y="-150" width="90" height="20" as="geometry" />
        </mxCell>
        <mxCell id="SL9Pmq_FGMzBkLCpXPil-86" style="edgeStyle=none;rounded=0;orthogonalLoop=1;jettySize=auto;html=1;exitX=1;exitY=0.5;exitDx=0;exitDy=0;entryX=0.5;entryY=0;entryDx=0;entryDy=0;endArrow=none;endFill=0;" edge="1" parent="1" source="SL9Pmq_FGMzBkLCpXPil-85" target="SL9Pmq_FGMzBkLCpXPil-38">
          <mxGeometry relative="1" as="geometry" />
        </mxCell>
        <mxCell id="SL9Pmq_FGMzBkLCpXPil-88" style="edgeStyle=none;rounded=0;orthogonalLoop=1;jettySize=auto;html=1;exitX=0;exitY=0.25;exitDx=0;exitDy=0;endArrow=none;endFill=0;" edge="1" parent="1" source="SL9Pmq_FGMzBkLCpXPil-85">
          <mxGeometry relative="1" as="geometry">
            <mxPoint x="590" y="-580" as="targetPoint" />
          </mxGeometry>
        </mxCell>
        <mxCell id="SL9Pmq_FGMzBkLCpXPil-89" style="edgeStyle=none;rounded=0;orthogonalLoop=1;jettySize=auto;html=1;exitX=0;exitY=0.75;exitDx=0;exitDy=0;endArrow=none;endFill=0;" edge="1" parent="1" source="SL9Pmq_FGMzBkLCpXPil-85">
          <mxGeometry relative="1" as="geometry">
            <mxPoint x="490" y="-580" as="targetPoint" />
          </mxGeometry>
        </mxCell>
        <mxCell id="SL9Pmq_FGMzBkLCpXPil-85" value="" style="triangle;whiteSpace=wrap;html=1;direction=south;" vertex="1" parent="1">
          <mxGeometry x="520" y="-525" width="40" height="30" as="geometry" />
        </mxCell>
        <mxCell id="SL9Pmq_FGMzBkLCpXPil-102" style="edgeStyle=none;rounded=0;orthogonalLoop=1;jettySize=auto;html=1;exitX=0;exitY=0.25;exitDx=0;exitDy=0;entryX=1;entryY=0.5;entryDx=0;entryDy=0;endArrow=none;endFill=0;" edge="1" parent="1" source="SL9Pmq_FGMzBkLCpXPil-90" target="SL9Pmq_FGMzBkLCpXPil-52">
          <mxGeometry relative="1" as="geometry" />
        </mxCell>
        <mxCell id="SL9Pmq_FGMzBkLCpXPil-106" style="edgeStyle=none;rounded=0;orthogonalLoop=1;jettySize=auto;html=1;exitX=0.25;exitY=1;exitDx=0;exitDy=0;endArrow=none;endFill=0;" edge="1" parent="1" source="SL9Pmq_FGMzBkLCpXPil-90">
          <mxGeometry relative="1" as="geometry">
            <mxPoint x="420" y="-560" as="targetPoint" />
          </mxGeometry>
        </mxCell>
        <mxCell id="SL9Pmq_FGMzBkLCpXPil-90" value="Genérico" style="whiteSpace=wrap;html=1;align=center;" vertex="1" parent="1">
          <mxGeometry x="425" y="-620" width="100" height="40" as="geometry" />
        </mxCell>
        <mxCell id="SL9Pmq_FGMzBkLCpXPil-110" style="edgeStyle=none;rounded=0;orthogonalLoop=1;jettySize=auto;html=1;exitX=0.5;exitY=0;exitDx=0;exitDy=0;endArrow=none;endFill=0;" edge="1" parent="1" source="SL9Pmq_FGMzBkLCpXPil-91">
          <mxGeometry relative="1" as="geometry">
            <mxPoint x="610" y="-730" as="targetPoint" />
          </mxGeometry>
        </mxCell>
        <mxCell id="SL9Pmq_FGMzBkLCpXPil-111" style="edgeStyle=none;rounded=0;orthogonalLoop=1;jettySize=auto;html=1;exitX=0.75;exitY=0;exitDx=0;exitDy=0;endArrow=none;endFill=0;" edge="1" parent="1" source="SL9Pmq_FGMzBkLCpXPil-91">
          <mxGeometry relative="1" as="geometry">
            <mxPoint x="634.8823529411766" y="-700" as="targetPoint" />
          </mxGeometry>
        </mxCell>
        <mxCell id="SL9Pmq_FGMzBkLCpXPil-113" style="edgeStyle=none;rounded=0;orthogonalLoop=1;jettySize=auto;html=1;exitX=1;exitY=0.75;exitDx=0;exitDy=0;entryX=0;entryY=1;entryDx=0;entryDy=0;endArrow=none;endFill=0;" edge="1" parent="1" source="SL9Pmq_FGMzBkLCpXPil-91" target="SL9Pmq_FGMzBkLCpXPil-94">
          <mxGeometry relative="1" as="geometry" />
        </mxCell>
        <mxCell id="SL9Pmq_FGMzBkLCpXPil-114" style="edgeStyle=none;rounded=0;orthogonalLoop=1;jettySize=auto;html=1;exitX=1;exitY=0.25;exitDx=0;exitDy=0;entryX=0;entryY=0.5;entryDx=0;entryDy=0;endArrow=none;endFill=0;" edge="1" parent="1" source="SL9Pmq_FGMzBkLCpXPil-91" target="SL9Pmq_FGMzBkLCpXPil-98">
          <mxGeometry relative="1" as="geometry" />
        </mxCell>
        <mxCell id="SL9Pmq_FGMzBkLCpXPil-91" value="Marca" style="whiteSpace=wrap;html=1;align=center;" vertex="1" parent="1">
          <mxGeometry x="560" y="-620" width="100" height="40" as="geometry" />
        </mxCell>
        <mxCell id="SL9Pmq_FGMzBkLCpXPil-94" value="" style="ellipse;whiteSpace=wrap;html=1;align=center;" vertex="1" parent="1">
          <mxGeometry x="740" y="-610" width="40" height="20" as="geometry" />
        </mxCell>
        <mxCell id="SL9Pmq_FGMzBkLCpXPil-95" value="" style="ellipse;whiteSpace=wrap;html=1;align=center;" vertex="1" parent="1">
          <mxGeometry x="390" y="-560" width="40" height="20" as="geometry" />
        </mxCell>
        <mxCell id="SL9Pmq_FGMzBkLCpXPil-97" value="" style="ellipse;whiteSpace=wrap;html=1;align=center;" vertex="1" parent="1">
          <mxGeometry x="590" y="-750" width="40" height="20" as="geometry" />
        </mxCell>
        <mxCell id="SL9Pmq_FGMzBkLCpXPil-98" value="" style="ellipse;whiteSpace=wrap;html=1;align=center;" vertex="1" parent="1">
          <mxGeometry x="680" y="-620" width="40" height="20" as="geometry" />
        </mxCell>
        <mxCell id="SL9Pmq_FGMzBkLCpXPil-104" style="edgeStyle=none;rounded=0;orthogonalLoop=1;jettySize=auto;html=1;exitX=1;exitY=0.5;exitDx=0;exitDy=0;entryX=0;entryY=0.75;entryDx=0;entryDy=0;endArrow=none;endFill=0;" edge="1" parent="1" source="SL9Pmq_FGMzBkLCpXPil-99" target="SL9Pmq_FGMzBkLCpXPil-90">
          <mxGeometry relative="1" as="geometry" />
        </mxCell>
        <mxCell id="SL9Pmq_FGMzBkLCpXPil-99" value="" style="ellipse;whiteSpace=wrap;html=1;align=center;" vertex="1" parent="1">
          <mxGeometry x="340" y="-600" width="40" height="20" as="geometry" />
        </mxCell>
        <mxCell id="SL9Pmq_FGMzBkLCpXPil-100" value="" style="ellipse;whiteSpace=wrap;html=1;align=center;" vertex="1" parent="1">
          <mxGeometry x="620" y="-720" width="40" height="20" as="geometry" />
        </mxCell>
        <mxCell id="SL9Pmq_FGMzBkLCpXPil-107" value="princípio ativo" style="text;html=1;align=center;verticalAlign=middle;resizable=0;points=[];autosize=1;strokeColor=none;fillColor=none;" vertex="1" parent="1">
          <mxGeometry x="210" y="-620" width="90" height="20" as="geometry" />
        </mxCell>
        <mxCell id="SL9Pmq_FGMzBkLCpXPil-108" value="data de validade" style="text;html=1;align=center;verticalAlign=middle;resizable=0;points=[];autosize=1;strokeColor=none;fillColor=none;" vertex="1" parent="1">
          <mxGeometry x="240" y="-600" width="100" height="20" as="geometry" />
        </mxCell>
        <mxCell id="SL9Pmq_FGMzBkLCpXPil-109" value="nome do laboratório" style="text;html=1;align=center;verticalAlign=middle;resizable=0;points=[];autosize=1;strokeColor=none;fillColor=none;" vertex="1" parent="1">
          <mxGeometry x="270" y="-560" width="120" height="20" as="geometry" />
        </mxCell>
        <mxCell id="SL9Pmq_FGMzBkLCpXPil-112" style="edgeStyle=none;rounded=0;orthogonalLoop=1;jettySize=auto;html=1;exitX=0.5;exitY=0;exitDx=0;exitDy=0;entryX=1;entryY=0;entryDx=0;entryDy=0;endArrow=none;endFill=0;" edge="1" parent="1" source="SL9Pmq_FGMzBkLCpXPil-98" target="SL9Pmq_FGMzBkLCpXPil-98">
          <mxGeometry relative="1" as="geometry" />
        </mxCell>
        <mxCell id="SL9Pmq_FGMzBkLCpXPil-115" value="nome do medicamento" style="text;html=1;align=center;verticalAlign=middle;resizable=0;points=[];autosize=1;strokeColor=none;fillColor=none;" vertex="1" parent="1">
          <mxGeometry x="660" y="-720" width="140" height="20" as="geometry" />
        </mxCell>
        <mxCell id="SL9Pmq_FGMzBkLCpXPil-116" value="nome do laboratório" style="text;html=1;align=center;verticalAlign=middle;resizable=0;points=[];autosize=1;strokeColor=none;fillColor=none;" vertex="1" parent="1">
          <mxGeometry x="630" y="-750" width="120" height="20" as="geometry" />
        </mxCell>
        <mxCell id="SL9Pmq_FGMzBkLCpXPil-117" value="cor da tarja" style="text;html=1;align=center;verticalAlign=middle;resizable=0;points=[];autosize=1;strokeColor=none;fillColor=none;" vertex="1" parent="1">
          <mxGeometry x="780" y="-610" width="80" height="20" as="geometry" />
        </mxCell>
        <mxCell id="SL9Pmq_FGMzBkLCpXPil-118" value="data de validade" style="text;html=1;align=center;verticalAlign=middle;resizable=0;points=[];autosize=1;strokeColor=none;fillColor=none;" vertex="1" parent="1">
          <mxGeometry x="720" y="-640" width="100" height="20" as="geometry" />
        </mxCell>
      </root>
    </mxGraphModel>
  </diagram>
</mxfile>
